<?xml version="1.0" encoding="iso-8859-1"?>
<svg version="1.1" id="Layer_1" xmlns="http://www.w3.org/2000/svg" xmlns:xlink="http://www.w3.org/1999/xlink" x="0px" y="0px"
	 viewBox="0 0 512 512" style="enable-background:new 0 0 512 512;" xml:space="preserve">
<g>
	<g>
		<g>
			<path d="M463.386,52.245H48.614C21.808,52.245,0,74.053,0,100.859v310.282c0,26.806,21.808,48.614,48.614,48.614h414.772
				c26.806,0,48.614-21.808,48.614-48.614V100.859C512,74.053,490.192,52.245,463.386,52.245z M491.102,411.141
				c0,15.283-12.433,27.716-27.716,27.716H48.614c-15.283,0-27.716-12.433-27.716-27.716V100.859
				c0-15.283,12.433-27.716,27.716-27.716h414.772c15.283,0,27.716,12.433,27.716,27.716V411.141z"/>
			<path d="M153.386,175.543h2.09c21.441,0,41.829,9.293,55.938,25.496c3.79,4.353,10.391,4.81,14.741,1.02
				c4.353-3.79,4.809-10.389,1.02-14.741c-18.078-20.764-44.211-32.672-71.699-32.672h-2.09c-52.431,0-95.086,42.655-95.086,95.086
				v12.539c0,52.431,42.655,95.086,95.086,95.086h2.09c27.488,0,53.621-11.908,71.699-32.671c3.789-4.352,3.333-10.953-1.02-14.741
				c-4.353-3.789-10.953-3.333-14.741,1.02c-14.107,16.202-34.495,25.495-55.938,25.495h-2.09
				c-40.907,0-74.188-33.281-74.188-74.188v-12.539C79.198,208.824,112.479,175.543,153.386,175.543z"/>
			<path d="M387.522,178.678c5.771,0,10.449-4.678,10.449-10.449v-3.135c0-5.771-4.678-10.449-10.449-10.449
				s-10.449,4.678-10.449,10.449v3.135C377.073,174,381.751,178.678,387.522,178.678z"/>
			<path d="M443.251,231.271v-0.001c5.771,0,10.449-4.678,10.449-10.449c0-5.771-4.678-10.449-10.449-10.449h-55.718
				c-0.003,0-0.006,0-0.01,0c-0.004,0-0.006,0-0.01,0h-59.898v-45.279c0-5.771-4.678-10.449-10.449-10.449
				s-10.449,4.678-10.449,10.449v45.279h-45.279c-5.771,0-10.449,4.678-10.449,10.449c0,5.771,4.678,10.449,10.449,10.449h45.279
				v49.458h-45.279c-5.771,0-10.449,4.678-10.449,10.449s4.678,10.449,10.449,10.449h45.279v45.28
				c0,5.771,4.678,10.449,10.449,10.449s10.449-4.678,10.449-10.449v-45.279h49.458v45.279c0,5.771,4.678,10.449,10.449,10.449
				c5.771,0,10.449-4.678,10.449-10.449v-45.279h45.279c5.771,0,10.449-4.678,10.449-10.449s-4.678-10.449-10.449-10.449H397.97
				v-49.458H443.251z M377.073,280.73h-49.458v-49.458h49.458V280.73z"/>
		</g>
	</g>
</g>
<g>
</g>
<g>
</g>
<g>
</g>
<g>
</g>
<g>
</g>
<g>
</g>
<g>
</g>
<g>
</g>
<g>
</g>
<g>
</g>
<g>
</g>
<g>
</g>
<g>
</g>
<g>
</g>
<g>
</g>
</svg>
