<?xml version="1.0" encoding="UTF-8" standalone="yes"?>
<svg xmlns="http://www.w3.org/2000/svg" viewBox="0 0 50 50" width="100" height="100" fill="#000000">
  <path d="M 25 2 C 18 2 14.908203 5.5175781 14.908203 5.5175781 C 14.343203 5.1955781 13.699 5 13 5 C 10.791 5 9 6.791 9 9 C 9 10.863 10.276 12.418281 12 12.863281 L 12 22.878906 L 8.4394531 26.439453 C 7.8534531 27.025453 7.8534531 27.974547 8.4394531 28.560547 C 8.7324531 28.853547 9.116 29 9.5 29 C 9.884 29 10.267547 28.853547 10.560547 28.560547 L 11.902344 27.21875 C 11.651344 29.89475 11 31.154 11 36 C 11 38.529 12.222063 41.240844 14.539062 43.339844 L 12.439453 45.439453 C 11.853453 46.025453 11.853453 46.974547 12.439453 47.560547 C 12.732453 47.853547 13.116 48 13.5 48 C 13.884 48 14.267547 47.853547 14.560547 47.560547 L 17.03125 45.091797 C 19.16525 46.260797 21.828 47 25 47 C 28.172 47 30.835703 46.260797 32.970703 45.091797 L 35.439453 47.560547 C 35.731453 47.853547 36.116 48 36.5 48 C 36.884 48 37.267547 47.853547 37.560547 47.560547 C 38.146547 46.974547 38.146547 46.025453 37.560547 45.439453 L 35.460938 43.339844 C 37.777938 41.240844 39 38.529 39 36 C 39 31.154 38.348656 29.89575 38.097656 27.21875 L 39.439453 28.560547 C 39.732453 28.854547 40.116 29 40.5 29 C 40.884 29 41.267547 28.853547 41.560547 28.560547 C 42.145547 27.974547 42.145547 27.025453 41.560547 26.439453 L 38 22.878906 L 38 12.863281 C 39.724 12.418281 41 10.862 41 9 C 41 6.791 39.209 5 37 5 C 36.301 5 35.656797 5.1955781 35.091797 5.5175781 C 35.091797 5.5175781 32 2 25 2 z M 13 8 C 13.299 8 13.550422 8.1425625 13.732422 8.3515625 C 13.422422 8.8645625 13.166422 9.4140938 12.982422 9.9960938 C 12.438422 9.9860938 12 9.546 12 9 C 12 8.448 12.448 8 13 8 z M 37 8 C 37.552 8 38 8.448 38 9 C 38 9.546 37.561578 9.9860938 37.017578 9.9960938 C 36.833578 9.4130937 36.577578 8.8645625 36.267578 8.3515625 C 36.449578 8.1425625 36.701 8 37 8 z M 19.501953 9.0019531 C 21.434953 9.0029531 22.999047 10.568953 22.998047 12.501953 C 22.997047 14.434953 21.430047 16.001 19.498047 16 C 17.66949 15.999054 16.187176 14.589813 16.03125 12.802734 C 16.171195 13.486055 16.7755 14 17.5 14 C 18.328 14 19 13.328 19 12.5 C 19 11.671 18.329 11 17.5 11 C 16.7755 11 16.171195 11.513945 16.03125 12.197266 C 16.187092 10.407645 17.672043 9.0010065 19.501953 9.0019531 z M 30.5 9.0019531 C 32.433 9.0029531 33.999047 10.568953 33.998047 12.501953 C 33.997047 14.434953 32.429094 16.001 30.496094 16 C 28.563094 15.999 26.997047 14.431047 26.998047 12.498047 C 26.999047 10.565047 28.567 9.0009531 30.5 9.0019531 z M 28.5 11 C 27.672 11 27 11.672 27 12.5 C 27 13.328 27.672 14 28.5 14 C 29.328 14 30 13.328 30 12.5 C 30 11.671 29.328 11 28.5 11 z M 25 16 C 26.105 16 27 16.448 27 17 C 27 17.552 26.105 18 25 18 C 23.895 18 23 17.552 23 17 C 23 16.448 23.895 16 25 16 z M 28.505859 18.490234 C 28.810859 18.951234 29 19.474 29 20 C 29 20.5 29 22 25 22 C 21 22 21 20.5 21 20 C 21 19.475 21.189188 18.954141 21.492188 18.494141 C 22.152188 19.413141 23.425 20 25 20 C 26.577 20 27.850859 19.412234 28.505859 18.490234 z M 23 23.845703 C 23.583 23.941703 24.24 24 25 24 C 25.76 24 26.417 23.941703 27 23.845703 L 27 25 C 27 25.553 26.552 26 26 26 C 25.448 26 25 25.553 25 25 C 25 25.553 24.552 26 24 26 C 23.448 26 23 25.553 23 25 L 23 23.845703 z"/>
</svg>
